# xmcd
#
# Track frame offsets: 
#        150
#        11049
#        23948
#        37948
#        51060
#        68986
#        86015
#        97846
#        110112
#        123916
#        135914
#        163887
#
# Disc length: 2371 seconds
#
# Revision: 0
# Processed by: cddbd v1.5.2PL0 Copyright (c) Steve Scherf et al.
# Submitted via: ExactAudioCopy v1.0b4
#
DISCID=9709410c
DTITLE=Dana Gillespie - Below The Belt
DYEAR=1984
DGENRE=Blues
TTITLE0=Lovin' Machine
TTITLE1=Come On (If You're Coming)
TTITLE2=Sixty Minute Man
TTITLE3=Ugly Papa
TTITLE4=One Hour Mama
TTITLE5=Below the Belt
TTITLE6=My Man Stands Out
TTITLE7=It Ain't the Meat
TTITLE8=Joe's Joint
TTITLE9=Don't You Make Me High
TTITLE10=Empty Bed Blues
TTITLE11=Horizontal Boogie
EXTD=
EXTT0=
EXTT1=
EXTT2=
EXTT3=
EXTT4=
EXTT5=
EXTT6=
EXTT7=
EXTT8=
EXTT9=
EXTT10=
EXTT11=
PLAYORDER=
